<?xml version="1.0" encoding="iso-8859-1"?>
<!-- Generator: Adobe Illustrator 19.0.0, SVG Export Plug-In . SVG Version: 6.00 Build 0)  -->
<svg version="1.1" id="Layer_1" xmlns="http://www.w3.org/2000/svg" xmlns:xlink="http://www.w3.org/1999/xlink" x="0px" y="0px"
	 viewBox="0 0 512 512" style="enable-background:new 0 0 512 512;" xml:space="preserve">
<g>
	<g>
		<path d="M460.484,415.625c-1.106-3.403-4.047-5.881-7.588-6.395l-44.525-6.471l-19.911-40.346
			c-1.584-3.208-4.851-5.239-8.429-5.239c-3.578,0-6.845,2.031-8.429,5.239l-19.913,40.346l-44.524,6.471
			c-3.541,0.514-6.482,2.992-7.588,6.396c-1.106,3.403-0.184,7.139,2.378,9.636l32.218,31.406l-7.606,44.346
			c-0.605,3.525,0.845,7.088,3.739,9.193c2.894,2.1,6.732,2.382,9.898,0.714l39.824-20.935l39.824,20.935
			c1.375,0.725,2.876,1.081,4.373,1.081c1.949,0,3.888-0.606,5.526-1.795c2.895-2.104,4.344-5.668,3.739-9.193l-7.606-44.346
			l32.218-31.406C460.667,422.764,461.59,419.028,460.484,415.625z M409.227,446.655c-2.216,2.159-3.226,5.271-2.703,8.318
			l5.222,30.445l-27.341-14.372c-1.369-0.72-2.872-1.081-4.374-1.081s-3.005,0.36-4.374,1.081l-27.341,14.372l5.222-30.445
			c0.523-3.047-0.488-6.159-2.703-8.318l-22.119-21.562l30.567-4.443c3.061-0.443,5.708-2.366,7.077-5.14l13.671-27.7l13.67,27.7
			c1.369,2.774,4.016,4.697,7.077,5.14l30.568,4.443L409.227,446.655z"/>
	</g>
</g>
<g>
	<g>
		<path d="M398.83,0H60.455c-5.191,0-9.399,4.209-9.399,9.399v469.965c0,3.387,1.822,6.51,4.768,8.179
			c2.946,1.671,6.563,1.622,9.467-0.119l41.576-24.946l32.542,24.407c3.057,2.295,7.197,2.506,10.475,0.539l41.576-24.946
			l32.542,24.407c1.664,1.248,3.649,1.879,5.641,1.879c1.668,0,3.341-0.443,4.835-1.34l46.996-28.198
			c4.451-2.671,5.894-8.445,3.224-12.894c-2.671-4.45-8.444-5.895-12.897-3.224l-41.576,24.946l-32.542-24.407
			c-3.058-2.295-7.2-2.508-10.476-0.539l-41.576,24.946l-32.542-24.407c-3.059-2.295-7.199-2.508-10.476-0.539l-32.761,19.657
			V18.799H389.43v291.378c0,5.191,4.209,9.399,9.399,9.399c5.191,0,9.399-4.209,9.399-9.399V9.399C408.229,4.209,404.02,0,398.83,0z
			"/>
	</g>
</g>
<g>
	<g>
		<path d="M154.448,84.594h-46.997c-5.191,0-9.399,4.209-9.399,9.399c0,5.191,4.209,9.399,9.399,9.399h46.997
			c5.191,0,9.399-4.208,9.399-9.399C163.847,88.802,159.639,84.594,154.448,84.594z"/>
	</g>
</g>
<g>
	<g>
		<path d="M333.035,131.59h-46.996c-5.191,0-9.399,4.209-9.399,9.399c0,5.191,4.209,9.399,9.399,9.399h46.996
			c5.191,0,9.399-4.208,9.399-9.399C342.434,135.799,338.225,131.59,333.035,131.59z"/>
	</g>
</g>
<g>
	<g>
		<path d="M333.035,178.587h-46.996c-5.191,0-9.399,4.208-9.399,9.399c0,5.191,4.209,9.399,9.399,9.399h46.996
			c5.191,0,9.399-4.209,9.399-9.399C342.434,182.795,338.225,178.587,333.035,178.587z"/>
	</g>
</g>
<g>
	<g>
		<path d="M333.035,225.583h-46.996c-5.191,0-9.399,4.208-9.399,9.399c0,5.191,4.209,9.399,9.399,9.399h46.996
			c5.191,0,9.399-4.209,9.399-9.399C342.434,229.792,338.225,225.583,333.035,225.583z"/>
	</g>
</g>
<g>
	<g>
		<path d="M333.035,272.58h-46.996c-5.191,0-9.399,4.209-9.399,9.399s4.209,9.399,9.399,9.399h46.996
			c5.191,0,9.399-4.209,9.399-9.399S338.225,272.58,333.035,272.58z"/>
	</g>
</g>
<g>
	<g>
		<path d="M333.035,319.576h-46.996c-5.191,0-9.399,4.209-9.399,9.399s4.209,9.399,9.399,9.399h46.996
			c5.191,0,9.399-4.209,9.399-9.399S338.225,319.576,333.035,319.576z"/>
	</g>
</g>
<g>
	<g>
		<path d="M239.042,131.59h-131.59c-5.191,0-9.399,4.209-9.399,9.399c0,5.191,4.209,9.399,9.399,9.399h131.59
			c5.191,0,9.399-4.208,9.399-9.399C248.441,135.799,244.232,131.59,239.042,131.59z"/>
	</g>
</g>
<g>
	<g>
		<path d="M239.042,178.587h-131.59c-5.191,0-9.399,4.208-9.399,9.399c0,5.191,4.209,9.399,9.399,9.399h131.59
			c5.191,0,9.399-4.209,9.399-9.399C248.441,182.795,244.232,178.587,239.042,178.587z"/>
	</g>
</g>
<g>
	<g>
		<path d="M239.042,225.583h-131.59c-5.191,0-9.399,4.208-9.399,9.399c0,5.191,4.209,9.399,9.399,9.399h131.59
			c5.191,0,9.399-4.209,9.399-9.399C248.441,229.792,244.232,225.583,239.042,225.583z"/>
	</g>
</g>
<g>
	<g>
		<path d="M239.042,272.58h-131.59c-5.191,0-9.399,4.209-9.399,9.399s4.209,9.399,9.399,9.399h131.59
			c5.191,0,9.399-4.209,9.399-9.399S244.232,272.58,239.042,272.58z"/>
	</g>
</g>
<g>
	<g>
		<path d="M239.042,319.576h-131.59c-5.191,0-9.399,4.209-9.399,9.399s4.209,9.399,9.399,9.399h131.59
			c5.191,0,9.399-4.209,9.399-9.399S244.232,319.576,239.042,319.576z"/>
	</g>
</g>
<g>
</g>
<g>
</g>
<g>
</g>
<g>
</g>
<g>
</g>
<g>
</g>
<g>
</g>
<g>
</g>
<g>
</g>
<g>
</g>
<g>
</g>
<g>
</g>
<g>
</g>
<g>
</g>
<g>
</g>
</svg>
