<?xml version="1.0" encoding="iso-8859-1"?>
<!-- Generator: Adobe Illustrator 19.0.0, SVG Export Plug-In . SVG Version: 6.00 Build 0)  -->
<svg version="1.1" id="Capa_1" xmlns="http://www.w3.org/2000/svg" xmlns:xlink="http://www.w3.org/1999/xlink" x="0px" y="0px"
	 viewBox="0 0 490 490" style="enable-background:new 0 0 490 490;" xml:space="preserve">
<path d="M490,296.72c0-38.262-29.711-69.687-67.271-72.479l-75.444-109.692h-38.612V72.592c0-5.762-4.669-10.426-10.426-10.426
	c-5.758,0-10.426,4.664-10.426,10.426v41.957h-30.268v-46.62H0v284.859h40.553c-0.097,1.514-0.164,3.035-0.164,4.572
	c0,38.861,31.612,70.474,70.469,70.474c38.861,0,70.473-31.612,70.473-70.474c0-1.537-0.067-3.059-0.164-4.572H301.94
	c-0.097,1.514-0.164,3.035-0.164,4.572c0,38.861,31.612,70.474,70.473,70.474c38.862,0,70.474-31.612,70.474-70.474
	c0-1.537-0.067-3.059-0.164-4.572H490V296.72z M336.32,135.399l60.949,88.617H257.553v-88.617H336.32z M20.851,88.779h215.851
	v135.237H20.851V88.779z M110.858,406.982c-27.362,0-49.618-22.255-49.618-49.622c0-27.367,22.256-49.624,49.618-49.624
	s49.622,22.257,49.622,49.624C160.48,384.727,138.219,406.982,110.858,406.982z M372.249,406.982
	c-27.362,0-49.622-22.255-49.622-49.622c0-27.367,22.261-49.624,49.622-49.624c27.363,0,49.623,22.257,49.623,49.624
	C421.872,384.727,399.611,406.982,372.249,406.982z M469.149,331.937H437.96c-10.221-26.33-35.812-45.052-65.711-45.052
	c-29.899,0-55.489,18.722-65.711,45.052h-129.97c-10.221-26.33-35.812-45.052-65.711-45.052c-29.896,0-55.485,18.722-65.706,45.052
	h-24.3v-87.07h396.44c28.593,0,51.858,23.265,51.858,51.853V331.937z"/>
<g>
</g>
<g>
</g>
<g>
</g>
<g>
</g>
<g>
</g>
<g>
</g>
<g>
</g>
<g>
</g>
<g>
</g>
<g>
</g>
<g>
</g>
<g>
</g>
<g>
</g>
<g>
</g>
<g>
</g>
</svg>
