<?xml version="1.0" encoding="iso-8859-1"?>
<!-- Generator: Adobe Illustrator 19.0.0, SVG Export Plug-In . SVG Version: 6.00 Build 0)  -->
<svg version="1.1" id="Layer_1" xmlns="http://www.w3.org/2000/svg" xmlns:xlink="http://www.w3.org/1999/xlink" x="0px" y="0px"
	 viewBox="0 0 512 512" style="enable-background:new 0 0 512 512;" xml:space="preserve">
<g>
	<g>
		<path d="M428.218,48.279c-46.198,0-83.782,37.584-83.782,83.782s37.584,83.782,83.782,83.782S512,178.259,512,132.061
			S474.416,48.279,428.218,48.279z M428.218,197.225c-35.932,0-65.164-29.232-65.164-65.164c0-35.932,29.232-65.164,65.164-65.164
			c35.932,0,65.164,29.232,65.164,65.164C493.382,167.993,464.15,197.225,428.218,197.225z"/>
	</g>
</g>
<g>
	<g>
		<path d="M471.414,96.982c-3.95-3.289-9.818-2.757-13.111,1.193l-40.018,48.023l-20.72-20.718c-3.632-3.636-9.532-3.636-13.164,0
			c-3.636,3.634-3.636,9.529,0,13.164l27.927,27.927c1.75,1.75,4.118,2.727,6.582,2.727c0.141,0,0.282-0.002,0.423-0.009
			c2.611-0.118,5.055-1.332,6.73-3.341l46.545-55.855C475.898,106.143,475.364,100.275,471.414,96.982z"/>
	</g>
</g>
<g>
	<g>
		<path d="M465.455,239.6c-5.141,0-9.309,4.168-9.309,9.309v97.261c0,5.134-4.184,9.309-9.327,9.309H176.873V206.534v-37.227
			c0-5.139,4.204-9.318,9.373-9.318h133.668c5.141,0,9.309-4.168,9.309-9.309s-4.168-9.309-9.309-9.309H186.245
			c-15.434,0-27.991,12.532-27.991,27.936v27.918H93.091c-2.639,0-5.154,1.12-6.92,3.082L2.389,293.398
			C0.852,295.107,0,297.325,0,299.625v65.164c0,5.141,4.168,9.309,9.309,9.309h23.357c-3.123,7.703-4.739,15.971-4.739,24.459
			c0,35.932,29.232,65.164,65.164,65.164c35.932,0,65.164-29.232,65.164-65.164c0-8.52-1.651-16.766-4.774-24.459h14.083h172.302
			c-3.123,7.703-4.739,15.971-4.739,24.459c0,35.932,29.232,65.164,65.164,65.164c35.932,0,65.164-29.232,65.164-65.164
			c0-9.643-2.112-18.934-6.094-27.464c9.121-4.603,15.404-14.032,15.404-24.922v-97.261
			C474.764,243.768,470.596,239.6,465.455,239.6z M93.091,445.102c-25.666,0-46.545-20.88-46.545-46.545
			c0-8.732,2.41-17.123,6.96-24.459h79.174c4.551,7.332,6.957,15.697,6.957,24.459C139.636,424.223,118.757,445.102,93.091,445.102z
			 M158.255,355.479H18.618v-52.282l36.77-40.856c0.157,0.008,0.307,0.047,0.466,0.047h102.4V355.479z M158.255,243.77H72.102
			l25.134-27.927h61.018V243.77z M400.291,445.102c-25.666,0-46.545-20.88-46.545-46.545c0-8.732,2.41-17.123,6.96-24.459h79.174
			c4.551,7.332,6.957,15.697,6.957,24.459C446.836,424.223,425.957,445.102,400.291,445.102z"/>
	</g>
</g>
<g>
	<g>
		<circle cx="93.091" cy="402.025" r="18.618"/>
	</g>
</g>
<g>
	<g>
		<circle cx="400.291" cy="402.025" r="18.618"/>
	</g>
</g>
<g>
</g>
<g>
</g>
<g>
</g>
<g>
</g>
<g>
</g>
<g>
</g>
<g>
</g>
<g>
</g>
<g>
</g>
<g>
</g>
<g>
</g>
<g>
</g>
<g>
</g>
<g>
</g>
<g>
</g>
</svg>
